<svg class="bottle" width="150" height="300" viewBox="0 0 100 200">
    <defs>
        <clipPath id="bottle-clip">
            <path d="M30,190 C10,190 10,170 10,150 L10,20 C10,0 30,0 30,0 L70,0 C70,0 90,0 90,20 L90,150 C90,170 90,190 70,190 Z" />
        </clipPath>
    </defs>
    <rect class="water" x="0" y="0" width="100" height="200" clip-path="url(#bottle-clip)" />
    <path class="bottle-outline" d="M30,190 C10,190 10,170 10,150 L10,20 C10,0 30,0 30,0 L70,0 C70,0 90,0 90,20 L90,150 C90,170 90,190 70,190 Z" stroke="black" stroke-width="4" fill="none" />
</svg>