<?xml version="1.0" encoding="utf-8"?>
<svg version="1.1" id="Layer_1" xmlns="http://www.w3.org/2000/svg" x="0px" y="0px" viewBox="0 0 414.287 469.65" style="enable-background:new 0 0 414.287 469.65;">
  <g transform="matrix(1, 0, 0, 1, 112.110001, -5.3025)">
    <path d="M197.503,248.143c-1.262-1.553-3.809-7.505-4.947-9.476c-1.137-1.971-5.383-8.623-8.642-11.732 c-0.805-0.767-1.614-1.314-2.376-1.704c-2.358-5.41-5.223-27.173-6.835-43.725c-1.706-17.512-7.278-24.449-7.278-24.449 c0.796-14.328-3.98-29.225-3.828-32.75c0.152-3.525,0-14.518,0-14.518c-0.834-18.043-10.386-21.53-20.772-24.866 c-10.386-3.336-23.046-9.704-24.942-11.371c-1.895-1.668-1.895-4.397-1.971-8.87c-0.073-4.328,1.768-8.941,3.261-14.18 c4.019-0.095,6.389-12.164,4.395-13.263c-0.719-0.397-1.259-0.427-1.661-0.29c0.631-6.139,0.366-13.052-2.584-18.435 c-5.61-10.234-16.527-9.855-16.527-9.855h-0.958c0,0-10.917-0.379-16.527,9.855c-2.951,5.383-3.215,12.295-2.584,18.435 c-0.402-0.137-0.942-0.107-1.661,0.29c-1.993,1.1,0.376,13.168,4.396,13.263c1.493,5.239,3.335,9.852,3.261,14.18 c-0.076,4.473-0.076,7.202-1.971,8.87s-14.556,8.036-24.942,11.371c-10.386,3.336-19.938,6.823-20.772,24.866 c0,0-0.152,10.993,0,14.518c0.152,3.525-4.624,18.422-3.828,32.75c0,0-5.572,6.937-7.278,24.449 c-1.612,16.552-4.477,38.315-6.835,43.725c-0.762,0.39-1.571,0.937-2.376,1.704c-3.26,3.108-7.505,9.761-8.642,11.732 c-1.137,1.971-3.685,7.923-4.947,9.476c-1.478,1.819-1.275,4.503,1.365,3.241c2.615-1.251,5.25-4.302,6.311-6.122 c1.061-1.82,1.819-2.274,1.819-2.274s-1.411,11.921-1.804,15.543c-0.436,4.018-1.949,9.513,0.136,10.081 c2.291,0.625,2.881-2.426,3.26-4.776c0.379-2.35,2.732-13.647,3.479-14.328c0.932-0.849,0.521,0.467,0.311,3.184 c-0.071,0.919-0.379,5.534-0.834,8.491c-0.455,2.957-1.971,9.552,1.213,9.173c3.184-0.379,3.942-18.194,4.473-19.483 c0.531-1.289,0.986-0.758,0.682,2.426c-0.096,1.007-1.744,12.964-1.137,15.389c0.607,2.426,2.957,2.047,3.715-1.061 c0.758-3.108,1.516-15.693,2.047-16.602c0.531-0.91,0.682,0.758,0.53,3.033c-0.111,1.664-1.061,10.765,0.758,11.144 c1.819,0.379,2.559-0.739,3.063-7.391c0.442-5.825,0.5-9.06,0.803-12.774c0.303-3.715,0.682-14.631-1.137-17.967 c0,0,2.274-11.22,6.974-20.924c4.7-9.704,11.675-26.685,11.371-35.024c-0.252-6.925,5.56-30.995,7.712-39.134 c0.204,2.029,0.501,4.178,0.93,6.384c2.123,10.917,5.307,24.108,4.852,32.295c-0.455,8.188-1.365,20.62-2.274,25.472 c-0.91,4.852-6.368,23.653-6.217,46.851c0.152,23.198,3.336,50.565,4.852,56.327c1.516,5.762,1.953,11.472,1.498,15.414 c-0.455,3.942-1.347,12.711-0.437,18.625c0,0-3.639,15.465-0.758,36.54c2.881,21.075,8.036,44.273,8.036,46.699 c0,0.217,0,0.547,0,0.964c-0.248,1.131-0.522,2.257-0.771,3.388c-0.3,1.368-0.502,2.736-0.54,4.138 c-0.037,1.386,0.041,2.768,0.065,4.154c0.017,0.971-0.01,1.941-0.104,2.906c-0.697,1.414-1.537,2.774-2.398,4.075 c-1.169,1.766-2.491,3.424-3.835,5.058c-1.357,1.65-2.742,3.277-4.036,4.977c-0.643,0.845-1.264,1.707-1.846,2.596 c-0.607,0.926-1.293,1.9-1.509,3.007c-0.2,1.021,0.09,2.051,1.062,2.536c0.194,0.097,0.4,0.158,0.606,0.185 c-0.026,0.313-0.007,0.632,0.083,0.962c0.33,1.207,1.559,2.076,2.796,2.111c0.167,0.576,0.591,1.013,1.248,1.201 c0.804,0.229,1.677-0.011,2.395-0.427c0.036,0.184,0.095,0.364,0.184,0.538c0.448,0.876,1.448,1.251,2.388,1.223 c1.111-0.034,2.054-0.688,2.793-1.472c0.383-0.406,0.731-0.841,1.078-1.274c-0.146,0.585-0.159,1.196,0.058,1.765 c0.405,1.06,1.557,1.595,2.616,1.745c1.005,0.143,2.021-0.059,2.925-0.51c0.347-0.173,0.702-0.394,1.032-0.654 c0.619-0.304,1.183-0.746,1.664-1.224c1.07-1.062,1.808-2.384,2.364-3.773c1.232-3.076,1.628-6.418,2.271-9.647 c0.121-0.607,0.247-1.22,0.386-1.831c0.08,0.055,0.206,0.049,0.315-0.061c1.379-1.399,1.911-3.663,2.076-5.558 c0.202-2.323-0.152-4.641-0.582-6.918c-0.456-2.417-0.907-4.826-1.193-7.271c-0.285-2.443-0.442-4.898-0.559-7.353 c-0.064-1.35-0.122-2.7-0.18-4.05c-0.004-0.099-0.01-0.198-0.014-0.297c0.276-3.749,0.595-7.4,0.958-10.521 c1.516-13.039,6.823-34.721,5.458-45.941c-1.365-11.22,0.298-39.876,1.744-48.064c1.446-8.188,8.415-54.28,6.899-67.471 l1.692-0.154l1.692,0.154c-1.516,13.191,5.453,59.284,6.899,67.471c1.446,8.187,3.108,36.844,1.744,48.064 c-1.365,11.22,3.942,32.902,5.458,45.941c0.363,3.121,0.682,6.773,0.958,10.521c-0.005,0.099-0.01,0.198-0.015,0.297 c-0.058,1.35-0.116,2.7-0.18,4.05c-0.116,2.456-0.274,4.911-0.559,7.353c-0.286,2.445-0.737,4.853-1.193,7.271 c-0.43,2.277-0.784,4.595-0.582,6.918c0.165,1.895,0.696,4.158,2.076,5.558c0.109,0.11,0.235,0.117,0.315,0.061 c0.139,0.611,0.265,1.224,0.386,1.831c0.643,3.229,1.039,6.571,2.271,9.647c0.556,1.39,1.294,2.711,2.364,3.773 c0.482,0.478,1.045,0.92,1.664,1.224c0.33,0.259,0.685,0.48,1.032,0.654c0.904,0.452,1.92,0.653,2.925,0.51 c1.059-0.151,2.211-0.685,2.616-1.745c0.217-0.569,0.204-1.18,0.058-1.765c0.347,0.434,0.694,0.868,1.078,1.274 c0.74,0.784,1.682,1.438,2.794,1.472c0.94,0.029,1.94-0.346,2.388-1.223c0.089-0.174,0.148-0.354,0.184-0.538 c0.718,0.416,1.591,0.656,2.395,0.427c0.657-0.188,1.08-0.625,1.248-1.201c1.237-0.035,2.466-0.903,2.796-2.111 c0.09-0.33,0.109-0.65,0.083-0.962c0.206-0.028,0.412-0.089,0.607-0.185c0.972-0.485,1.262-1.516,1.062-2.536 c-0.216-1.107-0.902-2.081-1.509-3.007c-0.582-0.888-1.203-1.751-1.846-2.596c-1.294-1.7-2.679-3.327-4.036-4.977 c-1.344-1.634-2.666-3.293-3.835-5.058c-0.861-1.301-1.701-2.661-2.398-4.075c-0.093-0.964-0.12-1.934-0.104-2.906 c0.024-1.385,0.102-2.768,0.065-4.154c-0.038-1.402-0.239-2.77-0.54-4.138c-0.248-1.131-0.523-2.257-0.771-3.388 c0-0.418,0-0.748,0-0.964c0-2.426,5.155-25.624,8.036-46.699c2.881-21.075-0.758-36.54-0.758-36.54 c0.91-5.913,0.018-14.682-0.437-18.625c-0.455-3.942-0.018-9.653,1.498-15.414s4.7-33.129,4.852-56.327 c0.152-23.198-5.307-41.999-6.216-46.851c-0.91-4.852-1.819-17.285-2.274-25.472c-0.455-8.188,2.729-21.378,4.852-32.295 c0.429-2.205,0.726-4.355,0.93-6.384c2.152,8.139,7.964,32.209,7.712,39.134c-0.303,8.339,6.671,25.321,11.371,35.024 c4.7,9.704,6.975,20.924,6.975,20.924c-1.82,3.336-1.44,14.252-1.137,17.967c0.303,3.715,0.361,6.949,0.803,12.774 c0.505,6.652,1.244,7.77,3.064,7.391c1.819-0.379,0.87-9.48,0.758-11.144c-0.152-2.275,0-3.942,0.53-3.033 c0.531,0.91,1.289,13.494,2.047,16.602c0.758,3.108,3.108,3.487,3.715,1.061c0.607-2.426-1.041-14.383-1.137-15.389 c-0.303-3.184,0.152-3.715,0.682-2.426c0.531,1.289,1.289,19.104,4.473,19.483c3.184,0.379,1.668-6.216,1.213-9.173 c-0.455-2.957-0.763-7.571-0.834-8.491c-0.21-2.717-0.621-4.033,0.311-3.184c0.748,0.681,3.1,11.978,3.479,14.328 c0.379,2.35,0.969,5.401,3.26,4.776c2.085-0.569,0.572-6.063,0.136-10.081c-0.393-3.622-1.804-15.543-1.804-15.543 s0.758,0.455,1.82,2.274c1.061,1.819,3.696,4.871,6.311,6.122C198.778,252.646,198.981,249.962,197.503,248.143z" style="stroke: rgb(0, 0, 0); stroke-width: 2px; paint-order: fill; fill: none;"/>
  </g>
</svg>